  <svg xmlns="http://www.w3.org/2000/svg" viewBox="0 0 24 24" width="48px" height="48px">
                                <path  d="M12 0C5.372 0 0 5.373 0 12c0 5.302 3.438 9.8 8.207 11.387.6.11.793-.258.793-.577 0-.284-.01-1.042-.015-2.045-3.34.724-4.042-1.563-4.042-1.563-.546-1.384-1.333-1.755-1.333-1.755-1.09-.744.083-.728.083-.728 1.205.085 1.838 1.237 1.838 1.237 1.07 1.83 2.805 1.303 3.49.998.108-.773.417-1.303.76-1.605-2.665-.3-5.466-1.332-5.466-5.93 0-1.31.47-2.38 1.236-3.22-.124-.303-.536-1.524.117-3.176 0 0 1.007-.322 3.3 1.23a11.534 11.534 0 0 1 3-.41c1.018.007 2.042.136 3 .41 2.29-1.552 3.296-1.23 3.296-1.23.656 1.652.243 2.873.12 3.176.77.84 1.234 1.91 1.234 3.22 0 4.61-2.806 5.626-5.478 5.92.43.373.818 1.106.818 2.227 0 1.607-.015 2.898-.015 3.29 0 .32.19.693.8.576C20.566 21.798 24 17.3 24 12c0-6.627-5.373-12-12-12z"/>
                              </svg>